<svg width="19" height="19" viewBox="0 0 19 19" fill="none" xmlns="http://www.w3.org/2000/svg">
<g clip-path="url(#clip0_285_1061)">
<path d="M9.5 11.875C10.8117 11.875 11.875 10.8117 11.875 9.5C11.875 8.18832 10.8117 7.125 9.5 7.125C8.18832 7.125 7.125 8.18832 7.125 9.5C7.125 10.8117 8.18832 11.875 9.5 11.875Z" fill="#323232"/>
<path d="M15.8333 3.16659H13.3237L12.3421 2.09784C12.0491 1.77325 11.6216 1.58325 11.1783 1.58325H7.82165C7.37831 1.58325 6.95081 1.77325 6.64998 2.09784L5.67623 3.16659H3.16665C2.29581 3.16659 1.58331 3.87909 1.58331 4.74992V14.2499C1.58331 15.1208 2.29581 15.8333 3.16665 15.8333H15.8333C16.7041 15.8333 17.4166 15.1208 17.4166 14.2499V4.74992C17.4166 3.87909 16.7041 3.16659 15.8333 3.16659ZM9.49998 13.4583C7.31498 13.4583 5.54165 11.6849 5.54165 9.49992C5.54165 7.31492 7.31498 5.54159 9.49998 5.54159C11.685 5.54159 13.4583 7.31492 13.4583 9.49992C13.4583 11.6849 11.685 13.4583 9.49998 13.4583Z" fill="#323232"/>
</g>
<defs>
<clipPath id="clip0_285_1061">
<rect width="19" height="19" fill="white"/>
</clipPath>
</defs>
</svg>
