<svg width="64" height="64" viewBox="0 0 64 64" fill="none" xmlns="http://www.w3.org/2000/svg">
<defs>
<linearGradient id="phone" x1="32" y1="4" x2="32" y2="60" gradientUnits="userSpaceOnUse">
<stop stop-color="#037C5D"/>
<stop offset="1" stop-color="#014836"/>
</linearGradient>
<linearGradient id="screen" x1="32" y1="10" x2="32" y2="52" gradientUnits="userSpaceOnUse">
<stop stop-color="#F6FFFC"/>
<stop offset="1" stop-color="#E9F7F2"/>
</linearGradient>
</defs>
<rect x="10" y="4" width="44" height="56" rx="13" fill="url(#phone)"/>
<rect x="14" y="10" width="36" height="42" rx="8" fill="url(#screen)"/>
<path d="M20 18L27 22L35 18L44 23V44L35 40L27 44L20 40V18Z" fill="#C8EBDD"/>
<path d="M27 22V44" stroke="#A3D7C3" stroke-width="1.6"/>
<path d="M35 18V40" stroke="#A3D7C3" stroke-width="1.6"/>
<path d="M32 23C28.8 23 26.2 25.6 26.2 28.8C26.2 32.2 29.8 36.9 31.4 38.7C31.7 39.1 32.3 39.1 32.6 38.7C34.2 36.9 37.8 32.2 37.8 28.8C37.8 25.6 35.2 23 32 23Z" fill="#05B084"/>
<circle cx="32" cy="28.8" r="2.2" fill="white"/>
<rect x="27" y="55.5" width="10" height="2.6" rx="1.3" fill="#003B2A"/>
</svg>
